<mxfile host="app.diagrams.net" modified="2021-04-05T15:17:57.793Z" agent="5.0 (Windows NT 10.0; Win64; x64) AppleWebKit/537.36 (KHTML, like Gecko) Chrome/89.0.4389.82 Safari/537.36" etag="LmuaVQCA9YdmHAmxxOzd" version="14.4.4" type="github">
  <diagram id="C5RBs43oDa-KdzZeNtuy" name="Page-1">
    <mxGraphModel dx="1038" dy="585" grid="1" gridSize="10" guides="1" tooltips="1" connect="1" arrows="1" fold="1" page="1" pageScale="1" pageWidth="827" pageHeight="1169" math="0" shadow="0">
      <root>
        <mxCell id="WIyWlLk6GJQsqaUBKTNV-0" />
        <mxCell id="WIyWlLk6GJQsqaUBKTNV-1" parent="WIyWlLk6GJQsqaUBKTNV-0" />
        <mxCell id="j3GPwONc-g3IrTvjKTaJ-0" value="&lt;font style=&quot;font-size: 16px&quot;&gt;异常检测&lt;/font&gt;" style="rounded=1;whiteSpace=wrap;html=1;fillColor=#dae8fc;strokeColor=#6c8ebf;" vertex="1" parent="WIyWlLk6GJQsqaUBKTNV-1">
          <mxGeometry x="60" y="410" width="110" height="65" as="geometry" />
        </mxCell>
        <mxCell id="j3GPwONc-g3IrTvjKTaJ-7" value="&lt;font style=&quot;font-size: 16px&quot;&gt;网络单元定位&lt;/font&gt;" style="rounded=1;whiteSpace=wrap;html=1;fillColor=#dae8fc;strokeColor=#6c8ebf;" vertex="1" parent="WIyWlLk6GJQsqaUBKTNV-1">
          <mxGeometry x="200" y="410" width="110" height="65" as="geometry" />
        </mxCell>
        <mxCell id="j3GPwONc-g3IrTvjKTaJ-8" value="&lt;font style=&quot;font-size: 16px&quot;&gt;度量指标聚类&lt;/font&gt;" style="rounded=1;whiteSpace=wrap;html=1;fillColor=#dae8fc;strokeColor=#6c8ebf;" vertex="1" parent="WIyWlLk6GJQsqaUBKTNV-1">
          <mxGeometry x="340" y="410" width="110" height="65" as="geometry" />
        </mxCell>
        <mxCell id="j3GPwONc-g3IrTvjKTaJ-9" value="&lt;font style=&quot;font-size: 16px&quot;&gt;因果图构建&lt;/font&gt;" style="rounded=1;whiteSpace=wrap;html=1;fillColor=#dae8fc;strokeColor=#6c8ebf;" vertex="1" parent="WIyWlLk6GJQsqaUBKTNV-1">
          <mxGeometry x="480" y="410" width="110" height="65" as="geometry" />
        </mxCell>
        <mxCell id="j3GPwONc-g3IrTvjKTaJ-10" value="&lt;font style=&quot;font-size: 16px&quot;&gt;PageRank&lt;/font&gt;" style="rounded=1;whiteSpace=wrap;html=1;fillColor=#dae8fc;strokeColor=#6c8ebf;" vertex="1" parent="WIyWlLk6GJQsqaUBKTNV-1">
          <mxGeometry x="620" y="410" width="110" height="65" as="geometry" />
        </mxCell>
      </root>
    </mxGraphModel>
  </diagram>
</mxfile>
